/* XPM */
static char *_[] = {
/* columns rows colors chars-per-pixel */
"50 50 102 2 ",
"   c black",
".  c #010101",
"X  c #050505",
"o  c #070707",
"O  c #121212",
"+  c #161616",
"@  c #191919",
"#  c #202020",
"$  c #212121",
"%  c #232323",
"&  c #252525",
"*  c #262626",
"=  c #2F2F2F",
"-  c #303030",
";  c #323232",
":  c #333333",
">  c #353535",
",  c #363636",
"<  c #373737",
"1  c #383838",
"2  c #393939",
"3  c #414141",
"4  c #434343",
"5  c #454545",
"6  c #494949",
"7  c #4D4D4D",
"8  c #4E4E4E",
"9  c #515151",
"0  c #525252",
"q  c #555555",
"w  c #585858",
"e  c #5E5E5E",
"r  c #646464",
"t  c #696969",
"y  c #6E6E6E",
"u  c #737373",
"i  c #797979",
"p  c #7A7A7A",
"a  c #808080",
"s  c #838383",
"d  c #858585",
"f  c #878787",
"g  c #888888",
"h  c #8C8C8C",
"j  c #8D8D8D",
"k  c #8F8F8F",
"l  c #909090",
"z  c #929292",
"x  c #939393",
"c  c #959595",
"v  c gray59",
"b  c #979797",
"n  c #989898",
"m  c #999999",
"M  c #9B9B9B",
"N  c #9C9C9C",
"B  c #9D9D9D",
"V  c #9F9F9F",
"C  c #A0A0A0",
"Z  c #A1A1A1",
"A  c #A3A3A3",
"S  c #A4A4A4",
"D  c #ACACAC",
"F  c #AFAFAF",
"G  c #B2B2B2",
"H  c #B3B3B3",
"J  c #BCBCBC",
"K  c #BFBFBF",
"L  c #C1C1C1",
"P  c #C4C4C4",
"I  c #C6C6C6",
"U  c #C9C9C9",
"Y  c #CECECE",
"T  c #D1D1D1",
"R  c #D2D2D2",
"E  c #DADADA",
"W  c #DBDBDB",
"Q  c #DCDCDC",
"!  c #DFDFDF",
"~  c gray88",
"^  c #E2E2E2",
"/  c #E3E3E3",
"(  c #E5E5E5",
")  c #E6E6E6",
"_  c #E9E9E9",
"`  c #EAEAEA",
"'  c #EBEBEB",
"]  c #ECECEC",
"[  c #F0F0F0",
"{  c #F1F1F1",
"}  c #F2F2F2",
"|  c #F3F3F3",
" . c #F5F5F5",
".. c #F6F6F6",
"X. c #F8F8F8",
"o. c #F9F9F9",
"O. c #FAFAFA",
"+. c #FCFCFC",
"@. c #FDFDFD",
"#. c #FEFEFE",
"$. c white",
"%. c None",
/* pixels */
"%.%.%.%.%.%.%.%.%.%.%.%.%.%.%.%.%.%.%.%.%.%.%.%.%.%.%.%.%.%.%.%.%.%.%.%.%.%.%.%.%.%.%.%.%.%.%.%.%.%.",
"%.%.%.%.%.%.%.%.%.%.%.%.%.%.%.%.%.%.%.%.%.%.%.%.%.%.%.%.%.%.%.%.%.%.%.%.%.%.%.%.%.%.%.%.%.%.%.%.%.%.",
"%.%.%.%.%.%.%.%.%.%.%.%.%.%.%.%.%.%.%.%.%.%.%.%.%.%.%.%.%.%.%.%.%.%.%.%.%.%.%.%.%.%.%.%.%.%.%.%.%.%.",
"%.%.%.%.%.%.%.%.%.%.%.%.%.%.%.%.%.%.%.%.%.%.%.%.%.%.%.%.%.%.%.%.%.%.%.%.%.%.%.%.%.%.%.%.%.%.%.%.%.%.",
"%.%.%.%.%.%.%.%.%.%.%.%.%.%.%.%.%.%.%.%.%.%.%.%.%.%.%.%.%.%.%.%.%.%.%.%.%.%.%.%.%.%.%.%.%.%.%.%.%.%.",
"%.%.%.%.%.%.%.%.%.%.%.%.%.%.%.%.%.%.%.%.%.%.%.%.%.%.%.%.%.%.%.%.%.%.%.%.%.%.%.%.%.%.%.%.%.%.%.%.%.%.",
"%.%.%.%.%.%.%.%.%.%.%.%.%.%.%.%.%.%.%.%.%.%.%.%.%.%.%.%.%.%.%.%.%.%.%.%.%.%.%.%.%.%.%.%.%.%.%.%.%.%.",
"%.%.%.%.%.%.%.%.%.%.%.%.%.%.%.%.%.%.%.%.%.%.%.%.%.%.%.%.%.%.%.%.%.%.%.%.%.%.%.%.%.%.%.%.%.%.%.%.%.%.",
"%.%.%.%.%.%.%.%.%.%.%.%.%.%.%.%.%.%.%.%.%.%.%.%.%.%.%.%.%.%.%.%.%.%.%.%.%.%.%.%.%.%.%.%.%.%.%.%.%.%.",
"%.%.%.%.%.%.%.%.%.%.%.%.%.%.%.%.%.%.%.%.%.%.%.%.%.%.%.%.%.%.%.%.%.%.%.%.%.%.%.%.%.%.%.%.%.%.%.%.%.%.",
"%.%.%.%.%.%.%.%.%.%.%.%.%.%.%.%.%.%.%.%.%.%.%.%.%.%.%.%.%.%.%.%.%.%.%.%.%.%.%.%.%.%.%.%.%.%.%.%.%.%.",
"%.%.%.%.%.%.%.%.%.%.%.%.%.%.%.%.                              o > $.%.%.%.%.%.%.%.%.%.%.%.%.%.%.%.%.",
"%.%.%.%.%.%.%.%.%.%.%.%.%.%.%.6 s p s p p s p s s p t 8 8 8 8 8 w d %.%.%.%.%.%.%.%.%.%.%.%.%.%.%.%.",
"%.%.%.%.%.%.%.%.%.%.%.%.%.%.o r $.$.$.$.$.$.$.$.$.$.T M N M M c p o %.%.%.%.%.%.%.%.%.%.%.%.%.%.%.%.",
"%.%.%.%.%.%.%.%.%.%.%.%.%.o ^  .$.$.$.$.$.$.$.$.$.$.X.X.X.W M c M h 2   %.%.%.%.%.%.%.%.%.%.%.%.%.%.",
"%.%.%.%.%.%.%.%.%.%.%.%.%.o [ $.$.$.$.$.$.$.$.$.$.$.$.$.$.' K A c M 2   %.%.%.%.%.%.%.%.%.%.%.%.%.%.",
"%.%.%.%.%.%.%.%.%.%.%.%.%.o [ $.$.$.$.$.X.X.$.$.$.$.X.X.$.$.$.H M c 2   %.%.%.%.%.%.%.%.%.%.%.%.%.%.",
"%.%.%.%.%.%.%.%.%.%.%.%.%.o [ $.$.$.$.X.y 6 $.$.$.X.A = ( $.$.H M c 2   %.%.%.%.%.%.%.%.%.%.%.%.%.%.",
"%.%.%.%.%.%.%.%.%.%.%.%.> 5 [ $.$.$.$. .8 # $.$.$.X.h   ! $.$.P F M 8 * %.%.%.%.%.%.%.%.%.%.%.%.%.%.",
"%.%.%.%.%.%.%.%.%.%.%.  s $.$.$.$.$.$.X.0 @ $.$.$.X.h   ! $.$.X.( M c h   %.%.%.%.%.%.%.%.%.%.%.%.%.",
"%.%.%.%.%.%.%.%.%.%.%.  p $.$.$.$.$.$. .8 # $.$.$.X.h   ! $.$.$.' M c h   %.%.%.%.%.%.%.%.%.%.%.%.%.",
"%.%.%.%.%.%.%.%.%.%.%.  s $.$.$.$.$.$.X.8 # $.$.$.X.h   ! $.$.$.' M c h   %.%.%.%.%.%.%.%.%.%.%.%.%.",
"%.%.%.%.%.%.%.%.%.%.%.  s $.$.$.$.$.$.X.0 * $.$.$.X.h o ! $.$.X.( c M h   %.%.%.%.%.%.%.%.%.%.%.%.%.",
"%.%.%.%.%.%.%.%.%.%.%.  p $.$.$.$.$.$.X.H A $.$.$.$.Y x [ $.$.$.' M c h   %.%.%.%.%.%.%.%.%.%.%.%.%.",
"%.%.%.%.%.%.%.%.%.%.%.  s $.$.$.$.$.$.$.$.$.$.$.$.$.$.$.$.$.$.$.] M c h   %.%.%.%.%.%.%.%.%.%.%.%.%.",
"%.%.%.%.%.%.%.%.%.%.%.  p $.$.$.$.$.$.X.$.$.$.$.$.$.$.$. .X.$.X.( c c h   %.%.%.%.%.%.%.%.%.%.%.%.%.",
"%.%.%.%.%.%.%.%.%.%.%.  t T $.$.$.$.^ h W $.$.$.$.$.$.$.N H $.$.' M c h   %.%.%.%.%.%.%.%.%.%.%.%.%.",
"%.%.%.%.%.%.%.%.%.%.%.  8 M  .$.$.$.K o H $.$.$.$.$.$.$.* 0 $.$.] M c h   %.%.%.%.%.%.%.%.%.%.%.%.%.",
"%.%.%.%.%.%.%.%.%.%.%.%.+ @ [ $.$.$. .W e * * * # * * * U ' $.J A c 5 O %.%.%.%.%.%.%.%.%.%.%.%.%.%.",
"%.%.%.%.%.%.%.%.%.%.%.%.%.o T ' $.$.$.X.h 0 - - - > 4 q ' $.$.H M M 2   %.%.%.%.%.%.%.%.%.%.%.%.%.%.",
"%.%.%.%.%.%.%.%.%.%.%.%.%.  h L $.$.$.$.$.[ c M M M P $.$.$.$.H M c 2   %.%.%.%.%.%.%.%.%.%.%.%.%.%.",
"%.%.%.%.%.%.%.%.%.%.%.%.%.o h A H H H H H F M M c c S H H H H N M c 2   %.%.%.%.%.%.%.%.%.%.%.%.%.%.",
"%.%.%.%.%.%.%.%.%.%.%.%.%.o u d M M c c M c c d p M M c c M M M x p -   %.%.%.%.%.%.%.%.%.%.%.%.%.%.",
"%.%.%.%.%.%.%.%.%.%.%.%.%.%.  2 M M M M M M c 4   M M M M M c c p   %.%.%.%.%.%.%.%.%.%.%.%.%.%.%.%.",
"%.%.%.%.%.%.%.%.%.%.%.%.%.%.%.# 2 2 2 2 > 2 2 * %.2 > 2 2 2 2 2 > %.%.%.%.%.%.%.%.%.%.%.%.%.%.%.%.%.",
"%.%.%.%.%.%.%.%.%.%.%.%.%.%.%.%.              %.%.                %.%.%.%.%.%.%.%.%.%.%.%.%.%.%.%.%.",
"%.%.%.%.%.%.%.%.%.%.%.%.%.%.%.%.%.%.%.%.%.%.%.%.%.%.%.%.%.%.%.%.%.%.%.%.%.%.%.%.%.%.%.%.%.%.%.%.%.%.",
"%.%.%.%.%.%.%.%.%.%.%.%.%.%.%.%.%.%.%.%.%.%.%.%.%.%.%.%.%.%.%.%.%.%.%.%.%.%.%.%.%.%.%.%.%.%.%.%.%.%.",
"%.%.%.%.%.%.%.%.%.%.%.%.%.%.%.%.%.%.%.%.%.%.%.%.%.%.%.%.%.%.%.%.%.%.%.%.%.%.%.%.%.%.%.%.%.%.%.%.%.%.",
"%.%.%.%.%.%.%.%.%.%.%.%.%.%.%.%.%.%.%.%.%.%.%.%.%.%.%.%.%.%.%.%.%.%.%.%.%.%.%.%.%.%.%.%.%.%.%.%.%.%.",
"%.%.%.%.%.%.%.%.%.%.%.%.%.%.%.%.%.%.%.%.%.%.%.%.%.%.%.%.%.%.%.%.%.%.%.%.%.%.%.%.%.%.%.%.%.%.%.%.%.%.",
"%.%.%.%.%.%.%.%.%.%.%.%.%.%.%.%.%.%.%.%.%.%.%.%.%.%.%.%.%.%.%.%.%.%.%.%.%.%.%.%.%.%.%.%.%.%.%.%.%.%.",
"%.%.%.%.%.%.%.%.%.%.%.%.%.%.%.%.%.%.%.%.%.%.%.%.%.%.%.%.%.%.%.%.%.%.%.%.%.%.%.%.%.%.%.%.%.%.%.%.%.%.",
"%.%.%.%.%.%.%.%.%.%.%.%.%.%.%.%.%.%.%.%.%.%.%.%.%.%.%.%.%.%.%.%.%.%.%.%.%.%.%.%.%.%.%.%.%.%.%.%.%.%.",
"%.%.%.%.%.%.%.%.%.%.%.%.%.%.%.%.%.%.%.%.%.%.%.%.%.%.%.%.%.%.%.%.%.%.%.%.%.%.%.%.%.%.%.%.%.%.%.%.%.%.",
"%.%.%.%.%.%.%.%.%.%.%.%.%.%.%.%.%.%.%.%.%.%.%.%.%.%.%.%.%.%.%.%.%.%.%.%.%.%.%.%.%.%.%.%.%.%.%.%.%.%.",
"%.%.%.%.%.%.%.%.%.%.%.%.%.%.%.%.%.%.%.%.%.%.%.%.%.%.%.%.%.%.%.%.%.%.%.%.%.%.%.%.%.%.%.%.%.%.%.%.%.%.",
"%.%.%.%.%.%.%.%.%.%.%.%.%.%.%.%.%.%.%.%.%.%.%.%.%.%.%.%.%.%.%.%.%.%.%.%.%.%.%.%.%.%.%.%.%.%.%.%.%.%.",
"%.%.%.%.%.%.%.%.%.%.%.%.%.%.%.%.%.%.%.%.%.%.%.%.%.%.%.%.%.%.%.%.%.%.%.%.%.%.%.%.%.%.%.%.%.%.%.%.%.%.",
"%.%.%.%.%.%.%.%.%.%.%.%.%.%.%.%.%.%.%.%.%.%.%.%.%.%.%.%.%.%.%.%.%.%.%.%.%.%.%.%.%.%.%.%.%.%.%.%.%.%."
};
