/* XPM */
static char *c[] = {
/* columns rows colors chars-per-pixel */
"50 64 144 2 ",
"   c #000000",
".  c #080602",
"X  c #070802",
"o  c #0B0A03",
"O  c #110D04",
"+  c #121105",
"@  c #221F09",
"#  c #28250B",
"$  c #2E2A0C",
"%  c #332D0D",
"&  c #38330E",
"*  c #3D3710",
"=  c #3F3910",
"-  c #422E10",
";  c #473111",
":  c #4F3713",
">  c #513913",
",  c #5A3F16",
"<  c #5C4216",
"1  c #524915",
"2  c #5A4A16",
"3  c #515615",
"4  c #5A5117",
"5  c #585C16",
"6  c #614317",
"7  c #654618",
"8  c #6A491A",
"9  c #625418",
"0  c #675C1A",
"q  c #74511C",
"w  c #79541D",
"e  c #7F5B1E",
"r  c #6D621B",
"t  c #646A19",
"y  c #72661D",
"u  c #78641E",
"i  c #786C1E",
"p  c #6F751C",
"a  c #74741D",
"s  c #72781D",
"d  c #787F1E",
"f  c #835B1F",
"g  c #855C20",
"h  c #885E20",
"j  c #866420",
"k  c #8E6422",
"l  c #916522",
"z  c #956924",
"x  c #996B25",
"c  c #807020",
"v  c #8C7D23",
"b  c #9F7126",
"n  c #A67328",
"m  c #AD7929",
"M  c #B27D2B",
"N  c #7D8420",
"B  c #848C21",
"V  c #918325",
"C  c #9C8527",
"Z  c #9C8D27",
"A  c #8B9323",
"S  c #969F26",
"D  c #A68629",
"F  c #A38B29",
"G  c #BB822D",
"H  c #A6952A",
"J  c #AD9C2B",
"K  c #B1932C",
"L  c #BC9D2E",
"P  c #98A026",
"I  c #9DA628",
"U  c #A3AC29",
"Y  c #BBA42F",
"T  c #BAAB2F",
"R  c #ADB52C",
"E  c #B2B32D",
"W  c #B8B12F",
"Q  c #B3BD2D",
"!  c #BDAA30",
"~  c #C1862E",
"^  c #C4882F",
"/  c #C1972F",
"(  c #C78B30",
")  c #CA8C30",
"_  c #C19F30",
"`  c #D19132",
"'  c #D89633",
"]  c #DC9A35",
"[  c #E29D36",
"{  c #C1A030",
"}  c #CEA533",
"|  c #C1AE31",
" . c #CBAB32",
".. c #D4AC34",
"X. c #C6B332",
"o. c #CDBB34",
"O. c #E5A037",
"+. c #E7A038",
"@. c #ECA439",
"#. c #E4AF38",
"$. c #F0A73A",
"%. c #F3AA3A",
"&. c #FCAF3C",
"*. c #E0B737",
"=. c #E4B738",
"-. c #E6BC38",
";. c #EDBF3A",
":. c #FFB23D",
">. c #F4BC3B",
",. c #BCC62F",
"<. c #BDC730",
"1. c #C3CE31",
"2. c #DAC537",
"3. c #DDC837",
"4. c #CED934",
"5. c #D1D235",
"6. c #E4C839",
"7. c #E9C83A",
"8. c #F3C53C",
"9. c #FCC53D",
"0. c #F2CA3C",
"q. c #FECC3E",
"w. c #EAD33B",
"e. c #F2D23C",
"r. c #FED43F",
"t. c #F3DC3D",
"y. c #FEDA3F",
"u. c #DEEA38",
"i. c #E2E239",
"p. c #E1E839",
"a. c #EFEF3C",
"s. c #F6E73D",
"d. c #F4ED3D",
"f. c #F9EB3F",
"g. c #E7F33A",
"h. c #EBF13B",
"j. c #EEFA3C",
"k. c #F5F33E",
"l. c #F9F23F",
"z. c #F2FF3D",
"x. c #FFDC40",
"c. c #FEE640",
"v. c #FDE940",
"b. c None",
/* pixels */
"b.b.b.b.b.b.b.b.b.b.b.b.b.b.b.b.b.b.b.b.b.b.b.b.b.b.b.b.b.b.b.b.b.b.b.b.b.b.b.b.b.b.b.b.b.b.b.b.b.b.",
"b.b.b.b.b.b.b.b.b.b.b.b.b.b.b.b.b.b.b.b.b.b.b.b.b.b.b.b.b.b.b.b.b.b.b.b.b.b.b.b.b.b.b.b.b.b.b.b.b.b.",
"b.b.b.b.b.b.b.b.b.b.b.b.b.b.b.b.b.b.b.b.b.b.b.b.b.b.b.b.b.b.b.b.b.b.b.b.b.b.b.b.b.b.b.b.b.b.b.b.b.b.",
"b.b.b.b.b.b.b.b.b.b.b.b.b.b.b.b.b.b.b.b.b.b.b.b.b.b.b.b.b.b.b.b.b.b.b.b.b.b.b.b.b.b.b.b.b.b.b.b.b.b.",
"b.b.b.b.b.b.b.b.b.b.b.b.b.b.b.b.b.b.b.b.b.b.b.b.b.b.b.b.b.b.b.b.b.b.b.b.b.b.b.b.b.b.b.b.b.b.b.b.b.b.",
"b.b.b.b.b.b.b.b.b.b.b.b.b.b.b.b.b.b.b.b.b.b.b.b.b.b.b.b.b.b.b.b.b.b.b.b.b.b.b.b.b.b.b.b.b.b.b.b.b.b.",
"b.b.b.b.b.b.b.b.b.b.b.b.b.b.b.b.b.b.b.b.b.b.b.b.b.b.b.b.b.b.b.b.b.b.b.b.b.b.b.b.b.b.b.b.b.b.b.b.b.b.",
"b.b.b.b.b.b.b.b.b.b.b.b.b.b.b.b.b.b.b.b.b.b.b.b.b.b.b.b.b.b.b.b.b.b.b.b.b.b.b.b.b.b.b.b.b.b.b.b.b.b.",
"b.b.b.b.b.b.b.b.b.b.b.b.b.b.b.b.b.b.b.b.b.b.b.b.b.b.b.b.b.b.b.b.b.b.b.b.b.b.b.b.b.b.b.b.b.b.b.b.b.b.",
"b.b.b.b.b.b.b.b.b.b.b.b.b.b.b.b.b.b.b.b.b.                        b.b.b.b.b.b.b.b.b.b.b.b.b.b.b.b.b.",
"b.b.b.b.b.b.b.b.b.b.b.b.b.b.b.b.b.b.b.b.o X o o o o X o o o o o o b.b.b.b.b.b.b.b.b.b.b.b.b.b.b.b.b.",
"b.b.b.b.b.b.b.b.b.b.b.b.b.b.b.b.        3 d B B B B B B B B B s 5         b.b.b.b.b.b.b.b.b.b.b.b.b.",
"b.b.b.b.b.b.b.b.b.b.b.b.b.b.b.          p U ,.,.,.,.,.,.<.<.<.P s         b.b.b.b.b.b.b.b.b.b.b.b.b.",
"b.b.b.b.b.b.b.b.b.b.b.b.b.b.            B 4.z.z.z.z.z.z.z.z.z.<.A         b.b.b.b.b.b.b.b.b.b.b.b.b.",
"b.b.b.b.b.b.b.b.b.b.b.b.b.  t N I I I I 4.g.z.z.z.z.z.z.z.z.z.p.5.H F D n g 6 X   b.b.b.b.b.b.b.b.b.",
"b.b.b.b.b.b.b.b.b.b.b.b.b.  s S 1.1.1.1.u.j.z.z.z.j.z.z.z.z.z.g.i.o. .} ` x 8 X   b.b.b.b.b.b.b.b.b.",
"b.b.b.b.b.b.b.b.b.b.b.b.b.  B ,.z.z.z.z.z.z.z.z.j.z.z.z.z.z.z.z.l.v.x.q.&.G q .   b.b.b.b.b.b.b.b.b.",
"b.b.b.b.b.b.b.b.b.b.b.b.b.  B Q j.z.z.z.z.z.z.z.z.z.z.z.k.k.v.v.v.v.x.x.r.L u .   b.b.b.b.b.b.b.b.b.",
"b.b.b.b.b.b.b.b.b.b.b.b.b.  B Q z.z.z.z.z.z.z.z.z.z.z.z.z.v.v.v.v.v.c.c.x.Y i X   b.b.b.b.b.b.b.b.b.",
"b.b.b.b.b.b.b.b.b.b.b.b.b.  B Q z.z.z.z.z.z.z.z.z.z.z.j.z.l.v.v.c.c.c.v.v.! i X   b.b.b.b.b.b.b.b.b.",
"b.b.b.b.b.b.b.b.b.b.X p A U 4.u.z.z.z.z.z.z.z.j.z.z.s.q.*.K 1 i Z c.c.c.c.7...M z , O   b.b.b.b.b.b.",
"b.b.b.b.b.b.b.b.b.  X p R g.j.j.z.z.z.z.z.z.z.z.z.z.r.:.' z o = y v.c.v.c.r.9.%.G , O   b.b.b.b.b.b.",
"b.b.b.b.b.b.b.b.b.  X s Q z.z.z.z.z.z.z.z.z.z.z.j.z.x.:.' k   & 0 c.x.c.v.r.r.:.G < O   b.b.b.b.b.b.",
"b.b.b.b.b.b.b.b.b.  X s Q z.z.z.z.z.z.z.z.z.z.k.v.v.x.:.' l   & y c.c.v.v.c.x.r.{ 2 O   b.b.b.b.b.b.",
"b.b.b.b.b.b.b.b.b.  X s R z.z.z.z.z.z.z.z.z.z.d.v.c.x.&.' k   & 0 v.c.v.c.v.v.c.X.2 +   b.b.b.b.b.b.",
"b.b.b.b.b.b.b.b.b.  X s R g.v.d.g.f.v.v.a.g.v.v.v.c.x.&.' l   * r c.c.v.x.v.c.v.| 4 +   b.b.b.b.b.b.",
"b.b.b.b.b.b.b.b.b.  X s E d.d.d.d.d.d.d.d.a.a.f.x.x.9.&.' l   & r c.c.c.c.c.c.c.| 4 O   b.b.b.b.b.b.",
"b.b.b.b.b.b.b.b.b.  X s W f.g.a.v.g.g.g.d.v.g.d.v.x.x.&.' l   * r v.v.c.c.c.c.c.! 4 +   b.b.b.b.b.b.",
"b.b.b.b.b.b.b.b.b.  X s R g.f.f.v.g.h.v.a.g.v.v.v.x.x.&.` l   * r c.v.c.x.x.x.x._ 2 O   b.b.b.b.b.b.",
"b.b.b.b.b.b.b.b.b.  X s E a.f.d.d.a.a.d.d.a.d.f.c.c.9.&.' l   & r c.c.c.v.x.x.x._ < O   b.b.b.b.b.b.",
"b.b.b.b.b.b.b.b.b.  X s W f.g.g.g.f.f.g.d.f.g.d.v.c.x.&.' l   & 0 c.c.c.x.x.:.&.~ , O   b.b.b.b.b.b.",
"b.b.b.b.b.b.b.b.b.  X s R a.f.d.g.v.f.g.f.f.g.d.v.c.x.&.' l   & r v.c.c.x.x.x.&.~ , O   b.b.b.b.b.b.",
"b.b.b.b.b.b.b.b.b.  X s R g.v.v.g.v.v.g.v.v.g.g.x.x.9.&.' l   & r v.c.c.c.x.x.&.~ , O   b.b.b.b.b.b.",
"b.b.b.b.b.b.b.b.b.  X d E v.g.h.v.g.g.v.g.g.v.v.v.x.x.&.' l   & 0 v.v.v.c.x.9.&.G , O   b.b.b.b.b.b.",
"b.b.b.b.b.b.b.b.b.. o d E h.a.a.g.v.g.v.v.v.v.v.v.c.x.&.' k   & y v.c.c.x.x.x.%.~ , O   b.b.b.b.b.b.",
"b.b.b.b.b.b.b.b.b.o + s R h.v.v.g.v.v.g.g.v.v.v.v.x.x.:.' l   & r v.c.x.x.x.9.&.~ , O   b.b.b.b.b.b.",
"b.b.b.b.b.b.b.b.b.o + s W v.g.h.v.g.g.v.v.g.g.v.v.c.x.&.' l   & r c.c.c.x.x.x.&.~ , O   b.b.b.b.b.b.",
"b.b.b.b.b.b.b.b.b.. o s R a.v.a.g.v.g.v.v.v.v.v.v.c.x.&.' l   * r v.c.c.c.x.9.&.~ , O   b.b.b.b.b.b.",
"b.b.b.b.b.b.b.b.b.  o a R g.v.v.g.v.v.g.v.v.v.v.x.x.9.&.' l   % r v.c.c.x.x.x.&.~ , O   b.b.b.b.b.b.",
"b.b.b.b.b.b.b.b.b.  X s R v.j.j.v.g.g.v.v.v.v.c.c.x.x.&.' l   * r c.c.c.c.x.:.&.~ , O   b.b.b.b.b.b.",
"b.b.b.b.b.b.b.b.b.  . s W v.v.v.v.v.p.v.v.v.v.v.v.x.x.&.` l   * r c.x.x.x.9.%.@.m > O   b.b.b.b.b.b.",
"b.b.b.b.b.b.b.b.b.  X s W v.v.v.v.v.v.v.v.v.v.v.v.c.x.&.' l   & r c.x.x.:.$.[ ) x ; o   b.b.b.b.b.b.",
"b.b.b.b.b.b.b.b.b.  . s W v.v.v.v.v.v.v.v.v.v.v.c.x.x.:.' l   & r c.x.x.&.$.[ ^ x ; o   b.b.b.b.b.b.",
"b.b.b.b.b.b.b.b.b.  X a W v.v.v.v.v.v.v.v.v.v.v.x.x.:.:.' l   * r c.x.:.&.$.[ ) z ; o   b.b.b.b.b.b.",
"b.b.b.b.b.b.b.b.b.  . i T v.v.v.c.c.c.c.v.c.c.x.:.:.:.&.' k   * r c.x.9.&.@.[ ) x ; o   b.b.b.b.b.b.",
"b.b.b.b.b.b.b.b.b.  . y Z 2.w.x.c.c.c.c.v.c.c.#...] ] [ ~ k @ 1 c x.x.x.&.[ ` m g % o   b.b.b.b.b.b.",
"b.b.b.b.b.b.b.b.b.  . r V J 3.x.c.c.c.c.v.c.x...G m m m b j 1 u C x.:.>.[ ` M h 8 $ .   b.b.b.b.b.b.",
"b.b.b.b.b.b.b.b.b.b.b.b.b.  v ! v.c.c.c.c.c.c.i o       # r x.x.x.&.@.[ ^ l 6 .   b.b.b.b.b.b.b.b.b.",
"b.b.b.b.b.b.b.b.b.b.b.b.b.  v ! c.c.c.c.c.c.c.V * % % % 1 c x.>.x.$.[ ] ^ l 6 .   b.b.b.b.b.b.b.b.b.",
"b.b.b.b.b.b.b.b.b.b.b.b.b.  v ! c.v.c.c.c.c.c.H 9 4 4 4 y D x.x.:.$.[ ' ^ l 6     b.b.b.b.b.b.b.b.b.",
"b.b.b.b.b.b.b.b.b.b.b.b.b.  V ! v.c.v.v.c.v.v.v.c.v.v.v.x.x.&.%.[ ^ ~ ^ ^ l , .   b.b.b.b.b.b.b.b.b.",
"b.b.b.b.b.b.b.b.b.b.b.b.b.  i Z X.X.X.X.6.0.x.x.x.x.x.0.0.>.$.] ) x x x x q : .   b.b.b.b.b.b.b.b.b.",
"b.b.b.b.b.b.b.b.b.b.b.b.b.  0 i v v v v } #.x.x.x.x.:.-.=.#.O.) M 8 8 8 8 , -     b.b.b.b.b.b.b.b.b.",
"b.b.b.b.b.b.b.b.b.b.b.b.b.b.. o o o o X z ' &.:.&.$.[ ) ( ( ( x q . . . . o b.b.b.b.b.b.b.b.b.b.b.b.",
"b.b.b.b.b.b.b.b.b.b.b.b.b.b.            g m ) ) ^ ^ M x x x x w 7         b.b.b.b.b.b.b.b.b.b.b.b.b.",
"b.b.b.b.b.b.b.b.b.b.b.b.b.b.b.b.b.b.b.b.6 6 8 8 8 8 , : : : > ; - b.b.b.b.b.b.b.b.b.b.b.b.b.b.b.b.b.",
"b.b.b.b.b.b.b.b.b.b.b.b.b.b.b.b.b.b.b.b.O O O + O O O O O o O O o b.b.b.b.b.b.b.b.b.b.b.b.b.b.b.b.b.",
"b.b.b.b.b.b.b.b.b.b.b.b.b.b.b.b.b.b.b.b.                          b.b.b.b.b.b.b.b.b.b.b.b.b.b.b.b.b.",
"b.b.b.b.b.b.b.b.b.b.b.b.b.b.b.b.b.b.b.b.b.b.b.b.b.b.b.b.b.b.b.b.b.b.b.b.b.b.b.b.b.b.b.b.b.b.b.b.b.b.",
"b.b.b.b.b.b.b.b.b.b.b.b.b.b.b.b.b.b.b.b.b.b.b.b.b.b.b.b.b.b.b.b.b.b.b.b.b.b.b.b.b.b.b.b.b.b.b.b.b.b.",
"b.b.b.b.b.b.b.b.b.b.b.b.b.b.b.b.b.b.b.b.b.b.b.b.b.b.b.b.b.b.b.b.b.b.b.b.b.b.b.b.b.b.b.b.b.b.b.b.b.b.",
"b.b.b.b.b.b.b.b.b.b.b.b.b.b.b.b.b.b.b.b.b.b.b.b.b.b.b.b.b.b.b.b.b.b.b.b.b.b.b.b.b.b.b.b.b.b.b.b.b.b.",
"b.b.b.b.b.b.b.b.b.b.b.b.b.b.b.b.b.b.b.b.b.b.b.b.b.b.b.b.b.b.b.b.b.b.b.b.b.b.b.b.b.b.b.b.b.b.b.b.b.b.",
"b.b.b.b.b.b.b.b.b.b.b.b.b.b.b.b.b.b.b.b.b.b.b.b.b.b.b.b.b.b.b.b.b.b.b.b.b.b.b.b.b.b.b.b.b.b.b.b.b.b."
};
