/* XPM */
static char *collectible[] = {
/* columns rows colors chars-per-pixel */
"32 41 120 2 ",
"   c black",
".  c #0C0A03",
"X  c #0F0E04",
"o  c #2D290B",
"O  c #2E2A0C",
"+  c #402D0F",
"@  c #422E10",
"#  c #453010",
"$  c #453011",
"%  c #473111",
"&  c #503813",
"*  c #593D15",
"=  c #5A3E16",
"-  c #4B4413",
";  c #5A4016",
":  c #5C4016",
">  c #514914",
",  c #534B15",
"<  c #5A4A16",
"1  c #5A5117",
"2  c #5B5217",
"3  c #604317",
"4  c #624418",
"5  c #674719",
"6  c #684819",
"7  c #6B4A1A",
"8  c #655B19",
"9  c #6C5E1B",
"0  c #78531D",
"q  c #6D621B",
"w  c #70621C",
"e  c #78681E",
"r  c #786C1E",
"t  c #6C711B",
"y  c #6F751C",
"u  c #70761C",
"i  c #72771D",
"p  c #72781D",
"a  c #767D1E",
"s  c #8A6021",
"d  c #8B7D23",
"f  c #A06F26",
"g  c #AE792A",
"h  c #B47F2B",
"j  c #848B21",
"k  c #968726",
"l  c #8E9624",
"z  c #AE8E2B",
"x  c #AE9D2C",
"c  c #A5AE2A",
"v  c #ABB42B",
"b  c #C1862E",
"n  c #C4882F",
"m  c #C88B30",
"M  c #C98C30",
"N  c #D19132",
"B  c #D29232",
"V  c #D39633",
"C  c #D49733",
"Z  c #DC9835",
"A  c #E09B36",
"S  c #E49E37",
"D  c #D1BC34",
"F  c #E3A036",
"G  c #E7A037",
"H  c #ECA439",
"J  c #EEA539",
"K  c #F3A93A",
"L  c #F4AA3A",
"P  c #FCAF3C",
"I  c #E4B638",
"U  c #E4BB38",
"Y  c #FFB13D",
"T  c #FFB43D",
"R  c #FEB53D",
"E  c #FFB63D",
"W  c #C7D232",
"Q  c #EBC03A",
"!  c #F9C63D",
"~  c #F9C73D",
"^  c #FBC73D",
"/  c #FFCA3E",
"(  c #FDCD3E",
")  c #FFCC3F",
"_  c #FFCE3F",
"`  c #ECD53B",
"'  c #FFD03F",
"]  c #FFD23F",
"[  c #FFD33F",
"{  c #FFD53F",
"}  c #FFD63F",
"|  c #FFDC3F",
" . c #FFDD3F",
".. c #DEE238",
"X. c #FDEA3F",
"o. c #FDEB3F",
"O. c #FAEF3F",
"+. c #FCEC3F",
"@. c #E4F13A",
"#. c #E7F33A",
"$. c #EDFA3C",
"%. c #FAF03F",
"&. c #F9F23F",
"*. c #F3FB3D",
"=. c #F4F83D",
"-. c #F4FB3D",
";. c #F6F83E",
":. c #F4FB3E",
">. c #F3FD3D",
",. c #F3FE3D",
"<. c #F2FF3D",
"1. c #FFE140",
"2. c #FFE240",
"3. c #FFE340",
"4. c #FFE440",
"5. c #FFE640",
"6. c #FEE740",
"7. c #FDE940",
"8. c #FEE840",
"9. c None",
/* pixels */
"9.9.9.9.9.9.9.9.9.9.9.9.9.9.9.9.9.9.9.9.9.9.9.9.9.9.9.9.9.9.9.9.",
"9.9.9.9.9.9.9.9.9.9.9.9.9.9.9.9.9.9.9.9.9.9.9.9.9.9.9.9.9.9.9.9.",
"9.9.9.9.9.9.9.9.9.9.9.9.9.9.9.9.9.9.9.9.9.9.9.9.9.9.9.9.9.9.9.9.",
"9.9.9.9.9.9.9.9.9.9.9.9.9.9.9.9.9.9.9.9.9.9.9.9.9.9.9.9.9.9.9.9.",
"9.9.9.9.9.9.9.9.9.9.9.9.9.9.9.9.9.9.9.9.9.9.9.9.9.9.9.9.9.9.9.9.",
"9.9.9.9.9.9.9.9.9.9.9.9.9.9.9.9.9.9.9.9.9.9.9.9.9.9.9.9.9.9.9.9.",
"9.9.9.9.9.9.9.9.9.9.9.9.9.                9.9.9.9.9.9.9.9.9.9.9.",
"9.9.9.9.9.9.9.9.9.9.      a j j j j j j t       9.9.9.9.9.9.9.9.",
"9.9.9.9.9.9.9.9.9.        W <.<.<.<.<.<.v       9.9.9.9.9.9.9.9.",
"9.9.9.9.9.9.9.9.  u c c c #.<.<.<.<.<.<...x z g 4   9.9.9.9.9.9.",
"9.9.9.9.9.9.9.9.  l <.<.<.<.<.<.<.<.<.<.;.6._ Y 0   9.9.9.9.9.9.",
"9.9.9.9.9.9.9.9.  l <.<.<.<.<.<.<.<.;.8.8.6.3.| e   9.9.9.9.9.9.",
"9.9.9.9.9.9.9.9.  l <.<.<.<.<.<.<.<.*.6.6.3.6.6.r   9.9.9.9.9.9.",
"9.9.9.9.9.9.  y #.$.<.<.<.<.<.<.*.E V . , 6.6.3.! K *   9.9.9.9.",
"9.9.9.9.9.9.  p <.<.<.<.<.<.<.<.;.Y B   - 3.3.6.) E ;   9.9.9.9.",
"9.9.9.9.9.9.  p <.<.<.<.<.<.<.6.3.Y B   - 6.6.6.6.6.1   9.9.9.9.",
"9.9.9.9.9.9.  p #.7.#.7.7.#.7.7.3.Y B   - 3.6.3.6.6.1   9.9.9.9.",
"9.9.9.9.9.9.  p 7.#.7.#.#.7.#.7.3.Y B   - 6.6.6.4.3.1   9.9.9.9.",
"9.9.9.9.9.9.  p #.7.7.#.7.#.7.7.3.Y B   - 6.6.3.| ] <   9.9.9.9.",
"9.9.9.9.9.9.  p 7.#.#.7.#.7.#.7.3.Y B   - 3.6.6./ Y =   9.9.9.9.",
"9.9.9.9.9.9.  p #.7.#.7.#.7.#.7.3.Y B   - 6.3.6./ Y =   9.9.9.9.",
"9.9.9.9.9.9.  a 7.#.7.#.7.#.7.7.3.Y B   - 6.6.6./ Y =   9.9.9.9.",
"9.9.9.9.9.9.. p #.7.#.7.#.7.7.7.3.Y B   - 6.3.3./ Y =   9.9.9.9.",
"9.9.9.9.9.9.. p 7.#.7.#.7.$.$.7.3.Y B   - 6.6.6./ Y =   9.9.9.9.",
"9.9.9.9.9.9.  p #.7.#.7.#.7.7.7.3.Y B   - 6.6.4./ Y =   9.9.9.9.",
"9.9.9.9.9.9.  p 7.$.7.#.7.7.7.7.3.Y B   - 4.6.4./ Y =   9.9.9.9.",
"9.9.9.9.9.9.  p 7.7.6.6.7.7.7.7.3.Y B   - 4.] E F M %   9.9.9.9.",
"9.9.9.9.9.9.  p 7.7.6.6.7.7.7.7.3.Y V   - 6._ Y A n %   9.9.9.9.",
"9.9.9.9.9.9.  r 6.6.4.4.6.4.4.E Y Y B   - 4.] Y S M %   9.9.9.9.",
"9.9.9.9.9.9.  q D ` 6.6.6.6.4.C B N h O 9 | ^ L M f O   9.9.9.9.",
"9.9.9.9.9.9.9.9.  k 6.4.4.6.6.X     O 4.{ Y S n =   9.9.9.9.9.9.",
"9.9.9.9.9.9.9.9.  k 4.6.6.4.4.1 > > w { ^ J Z n 3   9.9.9.9.9.9.",
"9.9.9.9.9.9.9.9.  k 6.6.6.6.6.6.6.6.| P J n n n :   9.9.9.9.9.9.",
"9.9.9.9.9.9.9.9.  q d d d U _ _ _ U I S b 7 7 7 @   9.9.9.9.9.9.",
"9.9.9.9.9.9.9.9.9.        B Y Y P n n n s       9.9.9.9.9.9.9.9.",
"9.9.9.9.9.9.9.9.9.9.9.9.9.3 6 6 5 & & & @ 9.9.9.9.9.9.9.9.9.9.9.",
"9.9.9.9.9.9.9.9.9.9.9.9.9.                9.9.9.9.9.9.9.9.9.9.9.",
"9.9.9.9.9.9.9.9.9.9.9.9.9.9.9.9.9.9.9.9.9.9.9.9.9.9.9.9.9.9.9.9.",
"9.9.9.9.9.9.9.9.9.9.9.9.9.9.9.9.9.9.9.9.9.9.9.9.9.9.9.9.9.9.9.9.",
"9.9.9.9.9.9.9.9.9.9.9.9.9.9.9.9.9.9.9.9.9.9.9.9.9.9.9.9.9.9.9.9.",
"9.9.9.9.9.9.9.9.9.9.9.9.9.9.9.9.9.9.9.9.9.9.9.9.9.9.9.9.9.9.9.9."
};
