/* XPM */
static char *exit[] = {
/* columns rows colors chars-per-pixel */
"32 36 96 2 ",
"   c black",
".  c #011700",
"X  c #021D00",
"o  c #1D1D1D",
"O  c #042202",
"+  c #092D07",
"@  c #0D2F0B",
"#  c #033200",
"$  c #063A03",
"%  c #083D04",
"&  c #0C3309",
"*  c #0E300B",
"=  c #113C0E",
"-  c #242424",
";  c #2D2D2D",
":  c #303030",
">  c #0F4D0B",
",  c #13420F",
"<  c #045300",
"1  c #065402",
"2  c #185514",
"3  c #067000",
"4  c #087402",
"5  c #097703",
"6  c #0B7A04",
"7  c #0B7C05",
"8  c #0D7E06",
"9  c #186113",
"0  c #1C6A17",
"q  c #1E6C19",
"w  c #20731B",
"e  c #646464",
"r  c #6B6B6B",
"t  c #0E8207",
"y  c #0F8308",
"u  c #118709",
"i  c #12890A",
"p  c #16930E",
"a  c #17940F",
"s  c #189610",
"d  c #199811",
"f  c #1B9D13",
"g  c #1C9F13",
"h  c #1DA114",
"j  c #1FA616",
"k  c #20A817",
"l  c #21AB19",
"z  c #22AD19",
"x  c #23AF1A",
"c  c #25B21B",
"v  c #25B31C",
"b  c #25B41C",
"n  c #28B91E",
"m  c #2AA222",
"M  c #2CA923",
"N  c #29BD20",
"B  c #33B52A",
"V  c #2BC121",
"C  c #2CC322",
"Z  c #2DC423",
"A  c #2DC523",
"S  c #2FC925",
"D  c #32CF27",
"F  c #32D028",
"G  c #34D329",
"H  c #36D72B",
"J  c #36D82B",
"K  c #36D92B",
"L  c #37DB2C",
"P  c #38DC2D",
"I  c #3CE430",
"U  c #3DE831",
"Y  c #3FEC33",
"T  c #40ED33",
"R  c #40ED34",
"E  c #41F035",
"W  c #46FB39",
"Q  c #47FE3A",
"!  c #48FF3B",
"~  c #6A8668",
"^  c #6CA968",
"/  c #72B76E",
"(  c #7AA677",
")  c #76BF71",
"_  c #81D77B",
"`  c #82DA7C",
"'  c #818181",
"]  c #8F8F8F",
"[  c #929292",
"{  c #979797",
"}  c #A2A2A2",
"|  c #A6A6A6",
" . c #88E581",
".. c #8CEF85",
"X. c #92FC8A",
"o. c gray97",
/* pixels */
"o.o.o.o.o.o.o.o.o.o.o.o.o.o.o.o.o.o.o.o.o.o.o.o.o.o.o.o.o.o.o.o.",
"o.[ ' ' ' ' ' ' ' ' ' ' ' ' ' ' ' ' ' ' ' ' ' ' ' ' ' ' ' ' ] o.",
"o.- = 2 2 2 2 2 2 2 2 2 2 2 2 2 2 2 2 2 2 2 2 2 2 2 2 2 2 , o o.",
"o.- m I I I U ! ! ! ! R I I I I I I I I I I I I I I I I I M o o.",
"o.- 1 4 4 3 y ! ! ! ! x 4 4 4 3 3 3 3 3 3 3 3 4 3 4 6 4 4 < o o.",
"o.- B ! C 3 y ! ! ! ! x x ! R 3 3 3 3 3 3 3 y ! 4 I ! ! A < o o.",
"o.- B ! C 3 y ! ! ! Q x x Q T 3 3 3 3 3 3 3 3 8 R a K ! A < o o.",
"o.- B ! C 3 y ! ! ! ! x l Q T 3 3 3 3 3 3 3 8 P s F E ! A < o o.",
"o.- B ! C 3 y ! ! ! ! x l ! T 3 3 3 3 3 3 3 4 k A x I ! A < o o.",
"o.- B ! C 3 y ! ! ! ! x l ! T 3 3 3 3 3 3 3 6 v N b I ! A < o o.",
"o.- B ! C 3 y ! ! ! ! x l ! T 3 3 3 3 3 3 3 7 D g D R ! A < o o.",
"o.- B ! C 3 y ! ! ! ! x l ! T 3 3 3 3 3 3 3 4 i I d K ! A < o o.",
"o.- B ! C 3 y ! ! ! ! x l ! T 3 3 3 3 3 3 3 y W 4 I ! ! A < o o.",
"o.- B ! C 3 y ! ! ! ! x l ! T 3 3 3 3 3 3 3 3 3 ! u G ! A < o o.",
"o.- B ! C 3 y ! ! ! ! x l ! R 3 3 3 3 3 3 3 8 R u L W ! A < o o.",
"o.- @ , & X O , , , , + + , = X X X X X X X O , X = , , & . o o.",
"o.} ;                                                     - } o.",
"o.o.{ : * w 0 # # 0 w w w 9 # # # # # # > 9 $ w w % # . ; [ o.o.",
"o.o.o.r 0 ! R 3 3 U ! ! ! P 3 3 3 3 3 i v C j ! ! u 3 # e o.o.o.",
"o.o.o.r q ! R 3 4 U ! ! ! H 3 3 3 3 3 v A h I ! ! i 3 # e o.o.o.",
"o.o.o.r q ! R 3 3 U ! ! ! H 3 3 3 3 3 3 l K u ! ! u 3 # e o.o.o.",
"o.o.o.r q ! R 3 3 U ! ! ! H 3 3 3 3 3 N A s ! ! ! i 3 # e o.o.o.",
"o.o.o.r 0 ! R 3 3 R ! ! ! H 3 3 3 3 3 6 x D p ! ! u 3 # e o.o.o.",
"o.o.o.r 0 ! R 3 3 U ! ! ! H 3 3 3 3 3 l n x L ! ! i 3 # e o.o.o.",
"o.o.o.r 0 ! R 3 3 I ! ! ! P 3 3 3 3 3 p v N v ! ! u 3 # e o.o.o.",
"o.o.o.r q ! R 3 3 R ! ! ! H 3 3 3 3 3 p b N n ! ! u 3 # e o.o.o.",
"o.o.o.r 0 ! R 3 3 I ! ! ! H 4 3 3 3 3 k N l L ! ! u 3 # e o.o.o.",
"o.o.o.r 0 ! R 3 3 R ! ! ! H 3 3 3 3 3 8 x F p ! ! i 3 # e o.o.o.",
"o.o.o.r q ! R 4 3 U ! ! ! H 3 3 3 3 3 N C s ! ! ! i 3 # e o.o.o.",
"o.o.o.r q ! T 3 3 U ! ! ! K 3 3 3 3 3 3 l K t ! ! i 3 # e o.o.o.",
"o.o.o.r 0 ! T 3 3 U ! ! ! K 3 3 3 3 3 v V h U ! ! i 3 # e o.o.o.",
"o.o.o.r 0 ! T 3 3 I ! ! ! H 3 3 3 3 3 u v A k ! ! u 3 # e o.o.o.",
"o.o.o.r q ! T 3 3 T ! ! ! H 3 3 3 3 3 f N x S ! ! u 3 # e o.o.o.",
"o.o.o.| ( X...^ ^ ..X.X.X. .^ ^ ^ ^ ^ _ ` ) X.X.X./ ^ ~ } o.o.o.",
"o.o.o.o.o.o.o.o.o.o.o.o.o.o.o.o.o.o.o.o.o.o.o.o.o.o.o.o.o.o.o.o.",
"o.o.o.o.o.o.o.o.o.o.o.o.o.o.o.o.o.o.o.o.o.o.o.o.o.o.o.o.o.o.o.o."
};
