/* XPM */
static char *e[] = {
/* columns rows colors chars-per-pixel */
"50 56 140 2 ",
"   c black",
".  c #041003",
"X  c #021B00",
"o  c #0B1B0A",
"O  c #1D1D1D",
"+  c #052203",
"@  c #082406",
"#  c #062904",
"$  c #092A07",
"%  c #0A2C08",
"&  c #033200",
"*  c #043C00",
"=  c #083D05",
"-  c #0E340B",
";  c #0F390C",
":  c #10350E",
">  c #113B0D",
",  c #152F13",
"<  c #173014",
"1  c #1B3F19",
"2  c gray14",
"3  c #2B2B2B",
"4  c #313131",
"5  c #3C3C3C",
"6  c #074003",
"7  c #094405",
"8  c #074C04",
"9  c #0C4608",
"0  c #0D4909",
"q  c #12400F",
"w  c #0F5D0A",
"e  c #11540C",
"r  c #125C0E",
"t  c #1F4B1C",
"y  c #1B5617",
"u  c #155B11",
"i  c #1C5B17",
"p  c #20431D",
"a  c #214E1D",
"s  c #086303",
"d  c #12610E",
"f  c #067000",
"g  c #097502",
"h  c #0C7C05",
"j  c #0F7209",
"k  c #11760B",
"l  c #166211",
"z  c #1A6515",
"x  c #1C6C16",
"c  c #1D6718",
"v  c #1E6E18",
"b  c #1F7418",
"n  c #20741B",
"m  c #227A1B",
"M  c #245A20",
"N  c #306B2D",
"B  c #4B4B4B",
"V  c #505050",
"C  c #487245",
"Z  c #597357",
"A  c #646464",
"S  c #6B6B6B",
"D  c #757575",
"F  c #0E8006",
"G  c #0E8208",
"H  c #108509",
"J  c #138C0B",
"K  c #16910E",
"L  c #189610",
"P  c #1B9D13",
"I  c #24841E",
"U  c #26881F",
"Y  c #1FA516",
"T  c #20A817",
"R  c #22AD19",
"E  c #25B41C",
"W  c #27B81E",
"Q  c #28BA1F",
"!  c #288E21",
"~  c #299222",
"^  c #2A9822",
"/  c #31A329",
"(  c #2ABE20",
")  c #30B726",
"_  c #31BB27",
"`  c #2DC423",
"'  c #2FC925",
"]  c #30CC26",
"[  c #3ACC2F",
"{  c #33D228",
"}  c #37D92C",
"|  c #39DD2D",
" . c #3AE12E",
".. c #3CE530",
"X. c #3EE932",
"o. c #40EE34",
"O. c #42F236",
"+. c #46FC3A",
"@. c #48FF3B",
"#. c #4A9645",
"$. c #4FA04A",
"%. c #51A44B",
"&. c #54AC4F",
"*. c #5ABA54",
"=. c #61A75C",
"-. c #699366",
";. c #7A9878",
":. c #7BB278",
">. c #7FB97B",
",. c #5FC458",
"<. c #63CD5C",
"1. c #68D760",
"2. c #68D861",
"3. c #70E967",
"4. c #71EB68",
"5. c #75F46C",
"6. c #79FD70",
"7. c #81BE7D",
"8. c #83C27F",
"9. c #818181",
"0. c #8E8E8E",
"q. c #869985",
"w. c #929292",
"e. c #999999",
"r. c #8CBD88",
"t. c #92AF90",
"y. c #A2A2A2",
"u. c #ADADAD",
"i. c #84C580",
"p. c #8EDB89",
"a. c #93E48D",
"s. c #96EC90",
"d. c #9AF493",
"f. c #9DFB96",
"g. c #C3C3C3",
"h. c #CACACA",
"j. c #D2D2D2",
"k. c #DBDBDB",
"l. c #E4E4E4",
"z. c gray97",
/* pixels */
"z.z.z.z.z.z.z.z.z.z.z.z.z.z.z.z.z.z.z.z.z.z.z.z.z.z.z.z.z.z.z.z.z.z.z.z.z.z.z.z.z.z.z.z.z.z.z.z.z.z.",
"z.l.h.g.g.g.g.g.g.g.g.g.g.g.g.g.g.g.g.g.g.g.g.g.g.g.g.g.g.g.g.g.g.g.g.g.g.g.g.g.g.g.g.g.g.g.g.h.l.z.",
"z.h.w.9.9.9.9.9.9.9.9.9.9.9.9.9.9.9.9.9.9.9.9.9.9.9.9.9.9.9.9.9.9.9.9.9.9.9.9.9.9.9.9.9.9.9.9.0.h.z.",
"z.y.3 p a M M M M M M M M M M M M M M M M M M M M M M M M M M M M M M M M M M M M M M M M M p 3 e.z.",
"z.e.2 y c ! I I I I U ! ! ! ! ! ! U ! I I I ! m I I I I I I I I ! m I I I I m ! I I I I I v i O e.z.",
"z.e.2 ~ ) ..........X.+.@.@.@.@.@.X.X.....................................................( ~ O w.z.",
"z.e.2 r k J J J J K P @.@.@.@.@.@.' E J J J J J H J H J J J H H J G J J J J J J J K J J J j w O e.z.",
"z.e.2 u k K J h f h J @.@.@.@.@.@.( Y F J K K h f f f f f f f f f f f h K F f J K L L K J s 8 O e.z.",
"z.t.2 / [ @.{ E f h J +.@.@.@.@.+.Q Y E X.+.X.Y f f f f f f f f f f h J @.( g | X.@.@.O.' k 8 O e.z.",
"z.e.2 / [ @.{ E f h J @.@.@.@.@.+.` E E ..+.O.R f f f f f f f f f f f h Y E ` E ' ..+.O.' k 8 O w.z.",
"z.e.2 / [ +.{ E f h J @.@.@.@.@.+.` E Y X.+.X.Y f f f f f f f f f f f g J E ..P E } +.X.` j 8 O e.z.",
"z.y.2 / [ +.{ E f h J @.@.@.@.@.+.( E Y  .+.O.Y f f f f f f f f f f h F } ( L ' | o.+.o.' k 8 O e.z.",
"z.e.2 / [ @.{ E f h J @.@.@.@.@.@.( R Y ..+.X.Y f f f f f f f f f f f h ( Q R ( ] ..+.O.` j 8 O e.z.",
"z.e.2 / [ @.{ E f h J @.@.@.@.@.@.( R E X.+.X.Y f f f f f f f f f f f h Y E ` E ' ..+.O.' k 8 O w.z.",
"z.e.2 / [ @.[ E f h J @.@.@.@.@.@.( R Y ..+.X.Y f f f f f f f f f f h h E ( ( E ' ..+.X.` k 8 O e.z.",
"z.e.2 / [ @.[ E f h J +.@.@.@.@.@.( E R ..@.X.Y f f f f f f f f f f h h ( E R ` ] ..+.O.' k 8 O e.z.",
"z.e.2 / [ @.] E f h J @.@.@.@.@.@.( R Y ..@.X.Y g f f f f f f f f f h F ] Q P ] | o.+.o.' j 8 O e.z.",
"z.e.2 / [ +.{ E f h J @.@.@.@.@.@.( E R ..@.X.Y f f f f f f f f f f f g K E | P E | O.O.` k 8 O e.z.",
"z.e.2 / [ @.{ E f h J @.@.@.@.@.@.( R Y ..@.X.Y f f f f f f f f f f g h E E ` E ' ..@.O.` k 8 O w.z.",
"z.e.2 / [ @.{ E f h J @.@.@.@.@.@.( E R ..@.O.R f f f f f f f f f f h J +.E g | o.@.@.o.' k 8 O e.z.",
"z.e.3 / [ @.{ E f h J +.@.@.@.@.@.( Y E ..+.X.Y f f f f f f f f f f f g J W  .P E } O.O.' k 8 O e.z.",
"z.e.2 / [ @.{ E f h J @.@.@.@.@.@.( E R ..@.X.Y f f f f f f f f f f g g J W ..T E | +.O.` k 8 O e.z.",
"z.e.2 / [ @.{ E f h J +.@.@.@.+.@.( Y Y ..@.X.Y f f f f f f f f f f h H o.( H { ..+.@.O.' k 8 O w.z.",
"z.e.2 y c I z u * 6 9 m m ! m ! ! u r e b m m e & * * & * * & * & = * 7 m u * v n I m m l = # O e.z.",
"z.y.4 < < > % % X X + > > > > > > $ $ $ - > : # X X X X X X X X X X X + > $ X - > > > - % o o 3 y.z.",
"z.j.y.5 <                                                                                 O 4 y.j.z.",
"z.l.j.D V O o @ > > ; X X X ; ; q q > q ; - X X X X X X X X X # $ - $ + q > q @ X X . . O B S j.l.z.",
"z.z.z.y.D 4 < > b b z # & & c v n n n b z u & & & & & & & & & 9 e l 0 = n n n 7 = & X o 3 D e.z.z.z.",
"z.z.z.z.h.S N ! @.O.X.f f f | O.@.@.@.@...{ f f f f f f f h H T E ` R T @.@.@.J h f * t A h.z.z.z.z.",
"z.z.z.z.h.S N ! @.O.X.f f f ..O.@.@.@.@...] f f f f f f f h P E W E ( ' @.@.@.K h f * 1 A h.z.z.z.z.",
"z.z.z.z.h.S N ! @.O...f f g | o.@.@.@.@...' f f f f f f f G E ( ` Y ] ..@.@.@.K h f * 1 A h.z.z.z.z.",
"z.z.z.z.h.S N m @.O...f f f ..O.@.@.@.@...] f f f f f f f f g Y E { T L @.@.+.K h f * 1 A h.z.z.z.z.",
"z.z.z.z.h.S N ! +.O...f f f | O.@.@.@.@...] f f f f f f f g J Y ( ` ( R @.@.@.K h f = 1 A h.z.z.z.z.",
"z.z.z.z.h.S N ! @.O...f f f | O.@.@.@.@...' f f f f f f f H ( ` ( K } @.@.@.@.K h f = 1 A h.z.z.z.z.",
"z.z.z.z.h.S N ! @.O...f f f ..O.@.@.@.@...' f f f f f f f h H Y ( ( ( Y @.@.@.J h f = 1 A h.z.z.z.z.",
"z.z.z.z.h.A N ! @.O...j f f ..O.@.@.@.@...' f f f f f f f g G Y ( ` ( Y @.@.@.K G f = q A h.z.z.z.z.",
"z.z.z.z.h.S N m @.O.X.f f f | O.@.@.@.@...' f f f f f f f h R ( R Y ' } @.@.@.K h f * 1 A g.z.z.z.z.",
"z.z.z.z.h.S N ! @.O...f f f ..X.@.@.@.@...{ f f f f f f f h P R ( ( ( ( @.@.@.J h f * t A h.z.z.z.z.",
"z.z.z.z.h.S N m @.O...f f f | O.@.@.@.@.X.{ f f f f f f f h K R R ( ( R @.@.@.K h f * q A h.z.z.z.z.",
"z.z.z.z.j.S N ! @.O...f f f ..O.@.@.@.+...' f f f f f f f h K R ( ( ( ( @.@.@.K h f * 1 A h.z.z.z.z.",
"z.z.z.z.h.S N ! @.O...f f f | X.@.@.@.@...' f f f f f f f F Y Y ( E ` { @.@.@.J F f * 1 A h.z.z.z.z.",
"z.z.z.z.h.S N m @.O...f f f | O.@.@.@.@...' g f f f f f f G Y ( E T ' | @.@.@.K h f * 1 A h.z.z.z.z.",
"z.z.z.z.h.S N ! @.O.X.f f f ..O.@.@.@.@...] f f f f f f f g h Y E { T L @.@.@.J G f = 1 A g.z.z.z.z.",
"z.z.z.z.h.S N m @.O.X.j f f ..O.@.@.@.@...' f f f f f f f h P R ( E ( ' @.@.@.K F f * t A h.z.z.z.z.",
"z.z.z.z.h.S N ! @.O...g g f ..X.@.@.@.@...' f f f f f f f J ( ( ( L } @.@.@.@.K h f * 1 A h.z.z.z.z.",
"z.z.z.z.h.S N ! @.O...f f f ..O.@.@.@.@...' f f f f f f f g g Y E ] Y L +.@.@.K F f * 1 A h.z.z.z.z.",
"z.z.z.z.h.S N ! @.O...f f f | X.@.@.@.+...] f f f f f f f g J Y E ' E Y +.@.+.K F f * 1 A h.z.z.z.z.",
"z.z.z.z.h.S N ! @.O...f f f  .O.@.@.@.+...] f f f f f f f G E ` Q Y ] X.@.@.@.K F f * 1 A h.z.z.z.z.",
"z.z.z.z.h.S N ! @.O.X.f f f | O.@.@.@.@. .] f f f f f f f g K Y E ( Q Q +.@.@.J F f * > A h.z.z.z.z.",
"z.z.z.z.h.S N m @.O...f f f | O.@.@.@.@...' f f f f f f f g K Y E ` Q E @.@.@.J F f 6 t A h.z.z.z.z.",
"z.z.z.z.h.S N ! @.O...f f f ..O.@.@.@.@...] f f f f f f f F P E ( R ( ] @.@.@.J h f * 1 A h.z.z.z.z.",
"z.z.z.z.k.w.-.=.6.5.3.#.#.#.3.5.6.6.6.6.3.1.#.#.#.#.#.#.#.$.,.<.<.*.2.4.6.6.6.&.$.#.C Z 0.j.z.z.z.z.",
"z.z.z.z.k.u.t.r.f.d.s.:.:.:.s.d.f.f.f.f.s.a.:.:.:.:.:.:.:.r.p.p.p.i.a.f.f.f.f.i.:.:.;.q.u.l.z.z.z.z.",
"z.z.z.z.z.z.z.z.z.z.z.z.z.z.z.z.z.z.z.z.z.z.z.z.z.z.z.z.z.z.z.z.z.z.z.z.z.z.z.z.z.z.z.z.z.z.z.z.z.z.",
"z.z.z.z.z.z.z.z.z.z.z.z.z.z.z.z.z.z.z.z.z.z.z.z.z.z.z.z.z.z.z.z.z.z.z.z.z.z.z.z.z.z.z.z.z.z.z.z.z.z.",
"z.z.z.z.z.z.z.z.z.z.z.z.z.z.z.z.z.z.z.z.z.z.z.z.z.z.z.z.z.z.z.z.z.z.z.z.z.z.z.z.z.z.z.z.z.z.z.z.z.z."
};
