/* XPM */
static char *p[] = {
/* columns rows colors chars-per-pixel */
"50 50 203 2 ",
"   c #192931",
".  c #1B2D3D",
"X  c #203036",
"o  c #21333F",
"O  c #3E493D",
"+  c #38423D",
"@  c #414D3F",
"#  c #1F3240",
"$  c #223542",
"%  c #253944",
"&  c #293D45",
"*  c #363E48",
"=  c #2D444C",
"-  c #3C4643",
";  c #3F4846",
":  c #34454C",
">  c #30484F",
",  c #3E4A4B",
"<  c #3B454D",
"1  c #3A4551",
"2  c #334B52",
"3  c #3D4A51",
"4  c #3D4B5A",
"5  c #364550",
"6  c #395458",
"7  c #434D43",
"8  c #424C49",
"9  c #465244",
"0  c #485545",
"q  c #46534B",
"w  c #49554B",
"e  c #4F5B4C",
"r  c #4B5846",
"t  c #515E4E",
"y  c #454B52",
"u  c #454F5C",
"i  c #455252",
"p  c #4E5C53",
"a  c #4C545C",
"s  c #4D5857",
"d  c #515956",
"f  c #53614C",
"g  c #556353",
"h  c #5C6B54",
"j  c #59645D",
"k  c #5D6B5C",
"l  c #566459",
"z  c #606F5C",
"x  c #63735C",
"c  c #6B7B5E",
"v  c #535A63",
"b  c #585B66",
"n  c #4E5868",
"m  c #5A6463",
"M  c #5E6A63",
"N  c #5C616A",
"B  c #5F6A72",
"V  c #656C6B",
"C  c #666A65",
"Z  c #667562",
"A  c #6B7B64",
"S  c #6D7E69",
"D  c #69716E",
"F  c #636573",
"G  c #6A6C75",
"H  c #666A7C",
"J  c #6A6C7A",
"K  c #646877",
"L  c #6B727C",
"P  c #6E7374",
"I  c #797E74",
"U  c #72717E",
"Y  c #797D7C",
"T  c #707573",
"R  c #847B79",
"E  c #748767",
"W  c #72826E",
"Q  c #7C817E",
"!  c #7A8773",
"~  c #88827D",
"^  c #89997B",
"/  c #6B6E82",
"(  c #6E7083",
")  c #6D7289",
"_  c #737585",
"`  c #7B7B83",
"'  c #757A8C",
"]  c #7C7C8C",
"[  c #7C7D92",
"{  c #847F8C",
"}  c #927C81",
"|  c #827C95",
" . c #7E8182",
".. c #7F8394",
"X. c #838584",
"o. c #848B85",
"O. c #8A8C84",
"+. c #838689",
"@. c #868A8C",
"#. c #8A8C8D",
"$. c #89818D",
"%. c #91898E",
"&. c #8D938C",
"*. c #92928D",
"=. c #949A83",
"-. c #838395",
";. c #8B8C95",
":. c #85839A",
">. c #8A869B",
",. c #8D8B9B",
"<. c #878897",
"1. c #998D94",
"2. c #948E9B",
"3. c #988A95",
"4. c #8D9192",
"5. c #8E929D",
"6. c #959594",
"7. c #9C9B95",
"8. c #91909B",
"9. c #9C929D",
"0. c #9B9B9B",
"q. c #979798",
"w. c #A08F9B",
"e. c #A1979B",
"r. c #A29A9C",
"t. c #A89A99",
"y. c #B39D98",
"u. c #9BA28F",
"i. c #9EA292",
"p. c #9DA09F",
"a. c #A2A195",
"s. c #A2A39D",
"d. c #8F87A3",
"f. c #8C8AA3",
"g. c #8E8DAA",
"h. c #938DA3",
"j. c #938EAC",
"k. c #9B8DA9",
"l. c #8E91A2",
"z. c #9493A3",
"x. c #9C94A3",
"c. c #9D9CA2",
"v. c #9493AC",
"b. c #9B95AC",
"n. c #9D9CAB",
"m. c #9599A7",
"M. c #9A8DB3",
"N. c #9594B2",
"B. c #969BB3",
"V. c #9C9CB4",
"C. c #9D9CBA",
"Z. c #A589AF",
"A. c #A295A2",
"S. c #A59CA2",
"D. c #A89CA4",
"F. c #A294AD",
"G. c #A49CAC",
"H. c #AB9DAB",
"J. c #A38AB9",
"K. c #A194B5",
"L. c #A49AB4",
"P. c #AA9EB2",
"I. c #A29DB9",
"U. c #A093B8",
"Y. c #9EA1A0",
"T. c #9DA1AE",
"R. c #9FA2B4",
"E. c #9EA2BC",
"W. c #A3A4A5",
"Q. c #A9A4A6",
"!. c #A6A8A5",
"~. c #ABA9A4",
"^. c #A5A6AA",
"/. c #ACA4AB",
"(. c #ACAAAC",
"). c #B1A4AC",
"_. c #B0AEA9",
"`. c #B5B4A3",
"'. c #A3A3B4",
"]. c #ACA4B4",
"[. c #AEA9B5",
"{. c #A4A5BB",
"}. c #ABA5BB",
"|. c #A5A8BB",
" X c #ADAABC",
".X c #B1A2B3",
"XX c #B1ACB3",
"oX c #B3A5BB",
"OX c #B1ACBB",
"+X c #B8AEBD",
"@X c #B2B0B5",
"#X c #C3C3A1",
"$X c #A5A7C2",
"%X c #A4A9C3",
"&X c #ACAAC4",
"*X c #ACACC8",
"=X c #AFA3C3",
"-X c #B2A6C4",
";X c #B1ADC3",
":X c #B1ADC9",
">X c #B2B1C6",
",X c #B3B1C9",
"<X c None",
/* pixels */
"<X<X<X<X<X<X<X<X<X<X<X<X<X<X<X<X<X<X<X<X<X<X<X<X<X<X<X<X<X<X<X<X<X<X<X<X<X<X<X<X<X<X<X<X<X<X<X<X<X<X",
"<X<X<X<X<X<X<X<X<X<X<X<X<X<X<X<X<X<X<X<X<X<X<X<X<X<X<X<X<X<X<X<X<X<X<X<X<X<X<X<X<X<X<X<X<X<X<X<X<X<X",
"<X<X<X<X<X<X<X<X<X<X<X<X<X<X<X<X<X<X<X<X<X<X<X<X<X<X<X<X<X<X<X<X<X<X<X<X<X<X<X<X<X<X<X<X<X<X<X<X<X<X",
"<X<X<X<X<X<X<X<X<X<X<X<X<X<X<X<X<X<X<X<X<X<X<X<X<X<X<X<X<X<X<X<X<X<X<X<X<X<X<X<X<X<X<X<X<X<X<X<X<X<X",
"<X<X<X<X<X<X<X<X<X<X<X<X<X<X<X<X<X<X<X<X<X<X<X<X<X<X<X<X<X<X<X<X<X<X<X<X<X<X<X<X<X<X<X<X<X<X<X<X<X<X",
"<X<X<X<X<X<X<X<X<X<X<X<X<X<X<X<X<X<X<X<X<X<XW A Z Z Z Z x c A S E c <X<X<X<X<X<X<X<X<X<X<X<X<X<X<X<X",
"<X<X<X<X<X<X<X<X<X<X<X<X<X<X<X<X<X<X<X! W S V C z x x Z Z x x f t x x x <X<X<X<X<X<X<X<X<X<X<X<X<X<X",
"<X<X<X<X<X<X<X<X<X<X<X<X<X<X<X<X<X<X<XW S D m j l k k M x k k r 0 x x c <X<X<X<X<X<X<X<X<X<X<X<X<X<X",
"<X<X<X<X<X<X<X<X<X<X<X<X<X<X<X<X<X^ ! k s i 4 4 4 1 3 i i i 8 7 r z x z f h x <X<X<X<X<X<X<X<X<X<X<X",
"<X<X<X<X<X<X<X<X<X<X<X<X<X<X<X<X<XA x w , 3 4 4 4 : 1 3 , , 7 - 7 f t t @ 0 @ z <X<X<X<X<X<X<X<X<X<X",
"<X<X<X<X<X<X<X<X<X<X<X<X<X<X<X<X<Xg e - > 2 4 4 4 5 1 1 1 8 - - 7 w 0 7 @ @ @ x x <X<X<X<X<X<X<X<X<X",
"<X<X<X<X<X<X<X<X<X<X<X<X<X<X<X<Xx 9 - - < 1 1 : * * y a v a y y y 8 7 9 @ @ @ f f <X<X<X<X<X<X<X<X<X",
"<X<X<X<X<X<X<X<X<X<X<X<X<X<X<X<Xp 7 8 y v b H H J ( _ ] | ] U J G V m p @ @ @ f h <X<X<X<X<X<X<X<X<X",
"<X<X<X<X<X<X<X<X<X<X<X<X<X<X<X<X- 7 0 b J _ f.v.R.|.|.}.}.L.b.2.2.;.T M r 0 @ f h A <X<X<X<X<X<X<X<X",
"<X<X<X<X<X<X<X<X<X<X<X<X<X<XZ j y Y #.e.H./.].[. X;X X X}.}.].XX@X(.6. .q 9 O z c E <X<X<X<X<X<X<X<X",
"<X<X<X<X<X<X<X<X<X<X<X<X<X<Xk j d #.0.H.]. X]. XOX;X;X X=X}.XXOX[.[.0.@.q 9 ; h c E <X<X<X<X<X<X<X<X",
"<X<X<X<X<X<X<X<X<X<X<X<X<X<Xp l C 0.^.(.XXOX X X&X;X;X;X*X&XOX X@X@X!.q.i q w g x E <X<X<X<X<X<X<X<X",
"<X<X<X<X<X<X<X<X<X<X<X<X<X<Xp m D 0.~.[.OXOX,X>X;X:X:X&X*X&X X[.[.[.'.T.B v i e g x <X<X<X<X<X<X<X<X",
"<X<X<X<X<X<X<X<X<X<X<X<X<X<Xs m T 7./.XXOXOX>X>X,X,X*X*X&X&X X X[.@X'.T.L m i i e k <X<X<X<X<X<X<X<X",
"<X<X<X<X<X<X<X<X<X<X<X<X<X<Xp C I p.~.XXXXOXOX>X>X,X>X;X;X;X;XOXOX[.(.^. .M i i p k <X<X<X<X<X<X<X<X",
"<X<X<X<X<X<X<X<X<X<X<X<X<X<Xr j o.r.W.G.]. X>X>X,X,X,X,X}.V.z.z.m./.^.^.+.C - 8 w l <X<X<X<X<X<X<X<X",
"<X<X<X<X<X<X<X<X<X<X<X<X<X<X7 z #.0.0.2.F.'.&X:X,X,X,X;XV.z.-.;.4.c.W.Y.;.V 8 - q l <X<X<X<X<X<X<X<X",
"<X<X<X<X<X<X<X<X<X<X<X<X<X<X<X<Xo.T V b N F >.V.:X,X&XI.( / ) [ [ ' @.&.W.` n + + <X<X<X<X<X<X<X<X<X",
"<X<X<X<X<X<X<X<X<X<X<X<X<X<X~ O.o.Q Y G F F ] z.}.,X|.v.) / / ( ) [ 4.q.!.X.C d C y.<X<X<X<X<X<X<X<X",
"<X<X<X<X<X<X<X<X<X<X<X<X<X<X~ ~ o.#.+.U F F U 3.G.>X'.,._ ( H K H -.5.c.!.o.x C R y.<X<X<X<X<X<X<X<X",
"<X<X<X<X<X<X<X<X<X<X<X<X<X<X<X<Xr.O.X.' J K [ >.9.].n.,.| | [ [ ' ] 8.n.~.&.I 1.z.y.<X<X<X<X<X<X<X<X",
"<X<X<X<X<X<X<X<X<X<X<X<X<X<X<X<Xr.*.%.;.| ] >.2.e..XF.z.d.d.f.f.f.2.c.H.~.7.O.%.1.H.<X<X<X<X<X<X<X<X",
"<X<X<X<X<X<X<X<X<X<X<X<X<X<X<X<XD.e.r.S.x.x.h.A.D..XG.b.K.C.I.{.{.]..X).s.s.r.~ w..X<X<X<X<X<X<X<X<X",
"<X<X<X<X<X<X<X<X<X<X<X<X<X<X<X<XD.Q.)..XP..XH.H.H..XH.x.P.}.;X-X-X+X+XXXa.a.7.%.w.).<X<X<X<X<X<X<X<X",
"<X<X<X<X<X<X<X<X<X<X<X<X<X<X<X<XD.).)..X.X.XD.H.H.P.K.x.L.L.&X-X-X+X.X).a.a.i.e.e.).<X<X<X<X<X<X<X<X",
"<X<X<X<X<X<X<X<X<X<X<X<X<X<X<X<X/.).).oXoXoXS.H..XU.K.F.h.b.I.=X-XoX/.t.i.t.a.XXXX).<X<X<X<X<X<X<X<X",
"<X<X<X<X<X<X<X<X<X<X<X<X<X<X<X<XW.D.H.P.L.H.x.9.2.| >.h.v.N.C.L.L.L.A.1.a.i.a._.).<X<X<X<X<X<X<X<X<X",
"<X<X<X<X<X<X<X<X<X<X<X<X<X<X<X<XW.r.D.G.F.G.9.2.>.-.>.d.j.N.C.M.F.F.9.1.a.a.i.~.(.<X<X<X<X<X<X<X<X<X",
"<X<X<X<X<X<X<X<X<X<X<X<X<X<X<X<X<Xe.r.G.x.x.b.F.F.K.J.J.M.j.f.f.x.G.9.1.7.i.i.<X<X<X<X<X<X<X<X<X<X<X",
"<X<X<X<X<X<X<X<X<X<X<X<X<X<X<X<X<Xe.e.^.9.%.-.h.b.C.C.C.N.g.:.z.b.G.z.6.6.7.<X<X<X<X<X<X<X<X<X<X<X<X",
"<X<X<X<X<X<X<X<X<X<X<X<X<X<X<X<X<Xe.S./.2.$.] f.b.C.C.C.j.f.[ b.L.G.z.2.*.<X<X<X<X<X<X<X<X<X<X<X<X<X",
"<X<X<X<X<X<X<X<X<X<X<X<X<X<X<X<X<Xq.7.S./.(.F.Z.Z.J.J.J.M.I.{.|.].z.4.#.o.<X<X<X<X<X<X<X<X<X<X<X<X<X",
"<X<X<X<X<X<X<X<X<X<X<X<X<X<X<X<X<X<X7.0.^.(.G.F.M.M.M.M.C.I.|.|.'.4.@.o.&.<X<X<X<X<X<X<X<X<X<X<X<X<X",
"<X<X<X<X<X<X<X<X<X<X<X<X<X<X<X<X<X<X<Xq.W./.(.G.v.g.j.N.R.{.{.R.n.#.+. .&.<X<X<X<X<X<X<X<X<X<X<X<X<X",
"<X<X<X<X<X<X<X<X<X<X<X<X<X<X<X<X<X<X<X<X0.W.[. X X|.{.$X&X}.E.4.o.I  .-.p.<X<X<X<X<X<X<X<X<X<X<X<X<X",
"<X<X<X<X<X<X<X<X<X<X<X<X<X<X<X<X<X<X<X<X0.Y.[.[. X|.%X&X|.R.m...Y ! @.5.!.<X<X<X<X<X<X<X<X<X<X<X<X<X",
"<X<X<X<X<X<X<X<X<X<X<X<X<X<X<X<X<X<X<X<X0.0.p.'. X*X*X*X'.m...T L Q m.R.(.<X<X<X<X<X<X<X<X<X<X<X<X<X",
"<X<X<X<X<X<X<X<X<X<X<X<X<X<X<X<X<X<X<X<XY.0.q.8.,.g.h.f..._ K ( ] B.R.|.~.`.#X<X<X<X<X<X<X<X<X<X<X<X",
"<X<X<X<X<X<X<X<X<X<X<X<X<X<X<X<X<X<X<X<XY.Y.q.8.,.>.-..._ _ H ..:.{.|.|.!.`.#X<X<X<X<X<X<X<X<X<X<X<X",
"<X<X<X<X<X<X<X<X<X<X<X<X<X<X<X<X<X<X<X<X0.Y.W.p.0.{ ` G _ [ <.B.E.&X|.|.W.~.`.#X=.i 2 2 <X<X<X<X<X<X",
"<X<X<X<X<X<X<X<X<X<X<X<X<X<X<X<X<X<X<X<X4.&.W.W.^.n.v.v.B.B.E.E.%X%X|.|.^.^._.O.V & & & % > 2 <X<X<X",
"<X<X<X<X<X<X<X<X<X<X<X<X<X<X<X<X<X<X<X<XY  .Y.^.^.{.|.$X%X%X%X%X%X%X|.|.^.^.^.V a # # # % = 2 <X<X<X",
"<X<X<X<X<X<X<X<X<X<X<X<X<X<X<X<X<X<X<X= i m Y.0.m.{.{.E.C.E.%X%X%X%X|.|.R.,.` # # # . # # # % 2 6 6 ",
"<X<X<X<X<X<X<X<X<X<X<X<X<X<X<X<XX     $ 3 m p.c.c.v.B.B.C.E.%X%X%X%XE.E.l./ u . . # . . # % o = > 2 ",
"<X<X<X<X<X<X<X<X<X<X<X<X<X<X<X<XX     . 3 v p.S.S.f.g.N.C.E.%X%X%X%XE.E.-.n . . . # . . # % % = = > "
};
