/* XPM */
static char *sprite[] = {
/* columns rows colors chars-per-pixel */
"32 32 4 1 ",
"  c black",
". c #D50000",
"X c #FFCDD2",
"o c None",
/* pixels */
"oooooooooooooooooooooooooooooooo",
"oooooooooooooooooooooooooooooooo",
"oooooo            oooooooooooooo",
"oooooo            oooooooooooooo",
"oooo  ............    oooooooooo",
"oooo  ............    oooooooooo",
"oo  ..................  oooooooo",
"oo  ..................  oooooooo",
"oo      XXXX  XX      oooooooooo",
"oo      XXXX  XX      oooooooooo",
"  XXXX    XX  XXXXXXXX  oooooooo",
"  XXXX    XX  XXXXXXXX  oooooooo",
"  XXXX    XXXX  XXXXXX  oooooooo",
"  XXXX    XXXX  XXXXXX  oooooooo",
"oo    XXXXXX          oooooooooo",
"oo    XXXXXX          oooooooooo",
"oooo  XXXXXXXXXXXX  oooooooooooo",
"oooo  XXXXXXXXXXXX  oooooooooooo",
"oo  ....    ....  oooooooooooooo",
"oo  ....    ....  oooooooooooooo",
"  ........    ....  oooooooooooo",
"  ........    ....  oooooooooooo",
"  ........          oooooooooooo",
"  ........          oooooooooooo",
"oo  XXXXXX    XX    oooooooooooo",
"oo  XXXXXX    XX    oooooooooooo",
"oo  XXXX......      oooooooooooo",
"oo  XXXX......      oooooooooooo",
"oooo  ..........  oooooooooooooo",
"oooo  ..........  oooooooooooooo",
"oooo              oooooooooooooo",
"oooo              oooooooooooooo"
};
