/* XPM */
static char *wall[] = {
/* columns rows colors chars-per-pixel */
"32 32 10 1 ",
"  c black",
". c #040404",
"X c #070707",
"o c #959595",
"O c #999999",
"+ c #9C9C9C",
"@ c #F8F8F8",
"# c #FCFCFC",
"$ c #FFFFFF",
"% c None",
/* pixels */
"%%%%%%%%%%%%%%%%%%%%%%%%%%%%%%%%",
"%%%%%%%%%%%%%%%%%%%%%%%%%%%%%%%%",
"%%%%%%%%%%%%%%%%%%%%%%%%%%%%%%%%",
"%%%%%%%%%%%%%%%%%%%%%%%%%%%%%%%%",
"%%%%%%%%%%%%%%%%%%%%%%%%%%%%%%%%",
"%%%%%%%%%%%%%%%%%%%%%%%%%%%%%%%%",
"%%%%%%%%%%%%%%%%%%%%%%%%%%%%%%%%",
"%%%%%%%%%%          X$%%%%%%%%%%",
"%%%%%%%%%X$$$$$$$O+OoX%%%%%%%%%%",
"%%%%%%%%X$$$$$$$$$$OOO %%%%%%%%%",
"%%%%%%%%X$$$$@$$$@$$OO %%%%%%%%%",
"%%%%%%%%X$$$@ $$@ $$OO %%%%%%%%%",
"%%%%%%% $$$$@ $$@ $$@Oo %%%%%%%%",
"%%%%%%% $$$$@ $$@ $$$Oo %%%%%%%%",
"%%%%%%% $$$$@X$$@X$$@Oo %%%%%%%%",
"%%%%%%% $$$$$$$$$$$$$Oo %%%%%%%%",
"%%%%%%% $$$$@$$$$$@$@Oo %%%%%%%%",
"%%%%%%% O$$$X$$$$$X$$Oo %%%%%%%%",
"%%%%%%%%X$$$@XX XX$$OO %%%%%%%%%",
"%%%%%%%% O$$$$OOO$$$OO %%%%%%%%%",
"%%%%%%%%XoOOOOOoOOOOOo %%%%%%%%%",
"%%%%%%%%% OOOOo OOOOo %%%%%%%%%%",
"%%%%%%%%%%     %     %%%%%%%%%%%",
"%%%%%%%%%%%%%%%%%%%%%%%%%%%%%%%%",
"%%%%%%%%%%%%%%%%%%%%%%%%%%%%%%%%",
"%%%%%%%%%%%%%%%%%%%%%%%%%%%%%%%%",
"%%%%%%%%%%%%%%%%%%%%%%%%%%%%%%%%",
"%%%%%%%%%%%%%%%%%%%%%%%%%%%%%%%%",
"%%%%%%%%%%%%%%%%%%%%%%%%%%%%%%%%",
"%%%%%%%%%%%%%%%%%%%%%%%%%%%%%%%%",
"%%%%%%%%%%%%%%%%%%%%%%%%%%%%%%%%",
"%%%%%%%%%%%%%%%%%%%%%%%%%%%%%%%%"
};
